<?xml version="1.0" encoding="utf-8"?>
<!-- Generator: Adobe Illustrator 16.0.1, SVG Export Plug-In . SVG Version: 6.00 Build 0)  -->
<!DOCTYPE svg PUBLIC "-//W3C//DTD SVG 1.1//EN" "http://www.w3.org/Graphics/SVG/1.1/DTD/svg11.dtd">
<svg version="1.1" xmlns="http://www.w3.org/2000/svg" xmlns:xlink="http://www.w3.org/1999/xlink" x="0px" y="0px" width="512px"
	 height="512px" viewBox="0 0 512 512" enable-background="new 0 0 512 512" xml:space="preserve">
<g id="Background">
</g>
<g id="Center">
	<g>
		<path fill="#BBD045" d="M83.332,275.672c-9.326-31.478,1.481-60.937,24.821-63.271c20.945-2.101,38.911-33.249,53.673-53.688
			c30.349-41.998,77.01-34.995,74.685-56.007c-6.721-30.816-42.36-7.921-65.353-6.996c-15.855,0.636-31.06,2.75-46.202,5.008
			c-42.912,36.427-70.645,90.118-72.514,150.371c12.125,12.786,28.13,41.662,46.599,58.364c2.458-1.091,5.119-2.017,7.941-2.872
			C97.917,296.05,85.249,282.111,83.332,275.672z"/>
		<path fill="#BBD045" d="M224.846,389.759c10.868-28.308,17.009-40.788,2.324-70.002c-32.325-9.13-42.12-12.013-74.669-18.687
			c-16.98-3.47-17.6-2.564-36.708,2.989c-3.038,0.872-5.998,1.679-8.811,2.521c-3.042,0.966-4.294,0.966-7.941,2.872
			c-7.54,3.38-13.014,8.534-14.287,19.556c-2.293,19.993,16.702,35.671,32.741,40.258c20.308,5.818,22.009-0.969,32.671,13.429
			c7.452,10.062,8.891,28.741,12.697,41.03c2.138,6.879,4.995,13.706,8.444,20.404c14.515,6.75,29.925,11.904,46.053,15.133
			C221.357,435.554,219.54,403.578,224.846,389.759z"/>
		<path fill="#BBD045" d="M463.511,248.366c-2.508-56.813-28.015-107.627-67.476-143.36c-3.698,1.036-8.417,1.215-14.836,0.043
			c-42.783-7.789-52.87,17.201-65.341,35.007c-9.52,13.602-42.954,17.326-53.673,32.657c-8.356,11.94,0.276,35.449-7.008,49.013
			c-3.345,6.245-1.808,24.368,2.288,30.277c12.877,18.739,34.244,8.339,50.357,15.072c19.629,8.2,21.865,30.964,38.181,47.646
			c16.296,16.688-20.826,42.373,9.479,103.035c3.249,6.527,7.013,11.3,11.067,14.565c20.492-12.756,38.543-29.012,53.368-47.92
			c4.604-30.645-5.75-40.449,7.194-68.489C435.089,298.614,448.742,268.674,463.511,248.366z"/>
	</g>
</g>
<g id="Foreground">
</g>
</svg>
