<?xml version="1.0" encoding="utf-8"?>
<!-- Generator: Adobe Illustrator 16.0.1, SVG Export Plug-In . SVG Version: 6.00 Build 0)  -->
<!DOCTYPE svg PUBLIC "-//W3C//DTD SVG 1.1//EN" "http://www.w3.org/Graphics/SVG/1.1/DTD/svg11.dtd">
<svg version="1.1" xmlns="http://www.w3.org/2000/svg" xmlns:xlink="http://www.w3.org/1999/xlink" x="0px" y="0px" width="512px"
	 height="512px" viewBox="0 0 512 512" enable-background="new 0 0 512 512" xml:space="preserve">
<g id="Background">
</g>
<g id="Center">
</g>
<g id="Foreground">
	<path d="M192.076,211.622c35.006-14.862,72.958-26.757,124.101-31.059c-13.016-31.271-27.401-53.346-44.327-73.579
		c-37.724,3.023-72.154,13.188-101.914,25.496C174.318,155.643,182.575,183.683,192.076,211.622z M355.272,297.831
		c-48.418-0.575-90.694,11.01-119.602,25.226c12.253,26.37,36.47,61.294,45.52,75.681c15.736-5.858,32.673-10.258,45.797-12.317
		c13.136-2.037,30.634-3.955,42.486-3.759C367.337,351.972,363.738,331.254,355.272,297.831z M226.923,305.462
		c38.698-17.795,81.183-25.807,123.971-24.636c-11.668-40.46-18.373-59.227-28.285-83.85
		c-47.547,2.058-88.106,13.782-125.048,31.287C197.561,228.264,211.174,272.024,226.923,305.462z M375.697,110.196
		c-23.721-4.305-58.338-7.037-84.013-5.474c17.509,24.243,30.354,45.349,42.403,75.441c32.477,0.797,76.613,10.494,94.712,17.599
		C417.992,168.966,397.475,132.421,375.697,110.196z M449.512,301.415c-1.462-26.735-5.559-62.437-15.472-87.3
		c-26.251-10.551-62.133-17.139-93.626-17.425c9.704,22.665,21.014,60.548,26.524,84.925
		C389.701,284.348,425.304,290.782,449.512,301.415z M427.819,114.507c-33.853-41.445-110.46-76.727-195.742-71.413
		c19.056,12.571,34.918,31.538,48.809,47.168c21.304-1.944,66.021,1.57,82.853,6.221c-2.866-3.39-6.38-6.745-7.283-8.732
		c-2.382-5.146,3.352-6.242,7.956-3.299c5.835,3.725,12.571,8.188,17.91,13.624C392.206,100.287,416.542,108.635,427.819,114.507z
		 M468.665,314.058c-0.972,3.317-6.812,6.653-9.537,5.821c0.396,5.898-0.972,35.252-2.516,46.567
		c4.063-8.378,11.856-29.146,14.182-37.917l3.308-12.907c3.276-10.976,13.899-48.863,4.279-98.713
		c-10.688-55.365-30.729-75.14-37.725-83.941c-17.794-9.678-44.734-18.461-44.734-18.461c24.404,33.047,32.858,48.599,47.455,87.943
		c8.457,4.405,23.835,12.916,25.744,15.256c1.541,1.837,1.55,5.146-3.269,5.074c-4-0.036-11.796-3.875-17.803-5.474
		c6.405,21.435,11.375,61.474,10.99,88.306C459.04,305.612,469.634,310.732,468.665,314.058z M437.536,395.549
		c3.505-3.505,8.765-10.927,10.799-15.258c2.049-17.572,2.117-53.619,1.37-64.13c-21.201-8.605-53.978-15.401-77.897-17.171
		c7.773,28.56,11.677,70.567,12.261,84.255C395.54,384.411,424.523,390.28,437.536,395.549z M383.085,443.837
		c18.569-11.56,35.99-24.866,48.63-40.854c-10.893-2.74-35.215-6.043-47.265-5.276C384.45,397.706,384.068,426.627,383.085,443.837z
		 M332.441,467.72c9.223-2.975,32.722-13.626,37.616-16.846c1.166-18.959,0.978-40.472,0.2-53.354
		c-24.71,0-59.525,7.221-79.451,15.577C302.375,431.727,318.331,452.245,332.441,467.72z M221.386,451.51
		c6.904,6.976,34.271,25.089,34.271,25.089c18.194,0.783,41.183-1.348,57.611-4.223c-9.058-10.323-31.658-42.324-38.514-53.086
		C257.245,426.627,235.086,440.121,221.386,451.51z M146.596,375.342c17.402,22.327,44.645,50.664,63.622,66.312
		c17.945-14.427,38.296-27.909,55.216-36.13c-14.596-22.644-36.178-55.52-45.219-75.729
		C187.834,344.152,169.451,356.183,146.596,375.342z M100.313,285.815c11.08,31.65,21.812,55.79,35.811,75.704
		c16.377-14.238,49.957-36.726,75.621-49.023c-8.455-18.179-20.654-52.154-29.17-77.604
		C149.519,251.117,124.815,266.944,100.313,285.815z M73.768,190.817c2.642,18.214,11.384,57.47,19.253,77.392
		c18.672-14.058,60.971-40.15,84.896-50.706c-8.366-30.492-14-49.739-18.682-80.518C125.4,152.025,89.621,175.407,73.768,190.817z
		 M69.672,125.961c-1.183,9.183,0.04,26.133,2.348,46.385c18.666-16.703,54.746-38.492,84.891-51.788
		c-3.487-22.97-7.193-59.615-6.806-69.383c-27.899,15.311-58.504,46.075-80.93,77.599 M160.416,33.149
		c40.088-16.591,79.113-25.692,124.182-19.545c5.01,0.689,4.585,4.933-0.746,4.968l-6.346,0.17
		c-36.29,0.567-89.672,12.1-117.295,27.731c-0.577,18.425,2.911,47.693,6.616,70.756c25.09-10.54,63.891-21.39,93.347-24.62
		c-16.721-17.785-39.472-34.597-42.195-36.547c-2.723-1.96-4.086-5.287-4.086-9.589c0.389-8.006,7.283-9.013,10.972-8.065
		c12.269-2.386,24.46-5.049,45.228-4.435c87.797-3.824,168.003,45.818,198.604,102.435
		c77.551,122.649,0.031,291.834-101.508,336.902c-43.421,19.272-80.67,27.581-149.321,18.013
		c-68.774-9.607-125.016-43.229-168.682-113.916c-53.796-87.09-23.519-188.559-15.959-209.831
		C65.605,91.209,118.694,50.739,160.416,33.149z M56.843,184.078c-0.872-13.185-1.926-31.267-1.926-31.267
		c-9.696,21.081-15.489,33.782-18.185,58.413C43.518,199.202,56.843,184.078,56.843,184.078z M198.524,451.45
		c-14.584-10.891-50.715-45.14-65.68-65.783c-5.494,3.237-11.634,12.039-19.591,13.566c-3.14,0.593-10.175,1.444-12.252,0.593
		c-2.076-0.878,0.464-5.28,2.724-8.224c3.894-5.074,9.564-11.674,17.886-18.122c-17.797-26.1-26.253-45.156-38.358-76.606
		c-6.993,4.365-12.082,8.248-18.179,13.115c-2.06,1.621-7.71,2.636-10.457,0.183c-4.987-4.471-5.058-12.341,1.949-17.324
		c2.872-2.052,17.102-11.882,20.405-14.646c-8.738-25.224-16.052-58.393-18.002-75.593c-5.828,5.081-14.025,10.841-16.332,12.419
		c-3.309,0.938-5.535-0.127-6.491-0.284c-3.328,35.681,0.506,74.964,11.121,110.429c18.241,61.016,69.384,119.171,138.411,140.817
		C187.287,463.585,195.215,454.394,198.524,451.45z M234.502,475.88c-6.817-3.892-15.361-9.952-23.328-15.238
		c-3.31,2.933-5.984,7.221-8.629,10.671C211.689,474.444,224.012,474.709,234.502,475.88z"/>
</g>
</svg>
