<?xml version="1.0" encoding="utf-8"?>
<!-- Generator: Adobe Illustrator 16.0.1, SVG Export Plug-In . SVG Version: 6.00 Build 0)  -->
<!DOCTYPE svg PUBLIC "-//W3C//DTD SVG 1.1//EN" "http://www.w3.org/Graphics/SVG/1.1/DTD/svg11.dtd">
<svg version="1.1" xmlns="http://www.w3.org/2000/svg" xmlns:xlink="http://www.w3.org/1999/xlink" x="0px" y="0px" width="32px"
	 height="32px" viewBox="0 0 32 32" enable-background="new 0 0 32 32" xml:space="preserve">
<g id="background">
	<path fill="#C96B4B" d="M15.5,0.814c-4.697,0-8.5,3.739-8.5,8.354c0,5.137,8.5,19.646,8.5,19.646s8.498-14.821,8.498-19.646
		C23.998,4.554,20.195,0.814,15.5,0.814z M15.498,12.251c-1.377,0-2.5-1.121-2.5-2.502c0-1.384,1.123-2.499,2.5-2.499
		c1.381,0,2.5,1.115,2.5,2.499C17.998,11.13,16.879,12.251,15.498,12.251z"/>
</g>
<g id="main" display="none">
	<path display="inline" fill="#6D6E71" d="M17.125,25.875c-0.159,0.295-0.308,0.567-0.449,0.825
		c2.301,0.245,3.827,1.174,3.827,2.023c0,0.988-2.055,2.09-5.003,2.09c-2.95,0-5.005-1.102-5.005-2.09
		c0-0.848,1.518-1.772,3.809-2.021c-0.144-0.258-0.294-0.53-0.456-0.825c-2.467,0.352-4.227,1.475-4.227,2.846
		c0,1.661,2.583,2.963,5.879,2.963c3.295,0,5.876-1.302,5.876-2.963C21.376,27.349,19.604,26.223,17.125,25.875z"/>
</g>
<g id="foreground" display="none">
	<path display="inline" fill="#C7562C" d="M15.505,29.812l-0.437-0.744C14.719,28.47,6.5,14.382,6.5,9.169
		c0-4.883,4.038-8.854,9-8.854c4.962,0,8.998,3.972,8.998,8.854c0,4.901-8.214,19.284-8.564,19.895L15.505,29.812z M15.5,1.314
		c-4.411,0-8,3.523-8,7.854c0,4.284,6.268,15.598,7.996,18.635c1.719-3.079,8.002-14.612,8.002-18.635
		C23.498,4.838,19.91,1.314,15.5,1.314z"/>
</g>
</svg>
