<?xml version="1.0" encoding="utf-8"?>
<!-- Generator: Adobe Illustrator 16.0.1, SVG Export Plug-In . SVG Version: 6.00 Build 0)  -->
<!DOCTYPE svg PUBLIC "-//W3C//DTD SVG 1.1//EN" "http://www.w3.org/Graphics/SVG/1.1/DTD/svg11.dtd">
<svg version="1.1" xmlns="http://www.w3.org/2000/svg" xmlns:xlink="http://www.w3.org/1999/xlink" x="0px" y="0px" width="32px"
	 height="32px" viewBox="0 0 32 32" enable-background="new 0 0 32 32" xml:space="preserve">
<g id="background">
	<rect y="0" fill-rule="evenodd" clip-rule="evenodd" fill="none" width="32" height="32"/>
	<path fill="#6D6E71" d="M29,29c0,0.553-0.447,1-1,1H4c-0.553,0-1-0.447-1-1V2c0-0.553,0.447-1,1-1h24c0.553,0,1,0.447,1,1V29z"/>
	<polygon fill="#6D6E71" points="32,20 18.301,20 12,26.303 12,6 32,6 	"/>
</g>
<g id="main" display="none">
	<polygon display="inline" fill="#F8F8F8" points="18.301,20 12,26.303 12,6 28,6 28,2 4,2 4,29 28,29 28,20 	"/>
	<path display="inline" fill="#F8F8F8" d="M13,7v17.187L18.187,19H31V7H13z M29,16H19v-1h10V16z M29,11H19v-1h10V11z"/>
</g>
<g id="foreground" display="none">
	<g display="inline">
		<rect x="6" y="7" fill="#6EB5E4" width="5" height="1"/>
		<rect x="6" y="9" fill="#6EB5E4" width="5" height="1"/>
		<rect x="6" y="11" fill="#6EB5E4" width="5" height="1"/>
		<rect x="6" y="13" fill="#6EB5E4" width="5" height="1"/>
		<rect x="6" y="15" fill="#6EB5E4" width="5" height="1"/>
		<rect x="6" y="17" fill="#6EB5E4" width="5" height="1"/>
		<line fill="#6EB5E4" x1="26" y1="19" x2="26" y2="20"/>
		<rect x="6" y="19" fill="#6EB5E4" width="6" height="1"/>
		<polygon fill="#6EB5E4" points="17.301,21 26,21 26,22 16.302,22 		"/>
		<rect x="6" y="21" fill="#6EB5E4" width="6" height="1"/>
		<rect x="6" y="23" fill="#6EB5E4" width="6" height="1"/>
		<polygon fill="#6EB5E4" points="15.302,23 26,23 26,24 14.302,24 		"/>
	</g>
	<rect x="15" y="14" display="inline" fill="#6EB5E4" width="3" height="3"/>
	<rect x="16" y="15" display="inline" fill="#6EB5E4" width="1" height="1"/>
	<rect x="15" y="9" display="inline" fill="#6EB5E4" width="3" height="3"/>
	<rect x="16" y="10" display="inline" fill="#6EB5E4" width="1" height="1"/>
</g>
</svg>
