<?xml version="1.0" encoding="utf-8"?>
<!-- Generator: Adobe Illustrator 16.0.1, SVG Export Plug-In . SVG Version: 6.00 Build 0)  -->
<!DOCTYPE svg PUBLIC "-//W3C//DTD SVG 1.1//EN" "http://www.w3.org/Graphics/SVG/1.1/DTD/svg11.dtd">
<svg version="1.1" xmlns="http://www.w3.org/2000/svg" xmlns:xlink="http://www.w3.org/1999/xlink" x="0px" y="0px" width="32px"
	 height="32px" viewBox="0 0 32 32" enable-background="new 0 0 32 32" xml:space="preserve">
<g id="background" display="none">
	<path display="inline" fill="#F8F8F8" d="M30,19.004C30,19.002,30.001,19,30.001,19v-2c0-0.052-0.004-0.109-0.015-0.164l-0.998-7
		C28.909,9.356,28.492,9,28.002,9H26V5c0-0.553-0.447-1-1-1V1h-6v3c-0.553,0-1,0.447-1,1v4h-1h-1h-1V5c0-0.553-0.447-1-1-1V1H8v3
		C7.447,4,7,4.448,7,5v4H4.999c-0.49,0-0.907,0.355-0.986,0.836l-0.998,7C3.004,16.891,3,16.948,3,17v2
		c0,0.145,0.033,0.279,0.089,0.404l-0.955,8.598V29C2.134,29,4,30,7,30s5-1,5-1v-1l-0.889-8H12c0.553,0,1-0.447,1.001-1H20
		c0.001,0.553,0.449,1,1.001,1h1.021l-0.889,8.002V29c0,0,1.866,1,4.866,1s5-1,5-1v-1L30,19.004z"/>
	<rect y="0" display="inline" fill-rule="evenodd" clip-rule="evenodd" fill="none" width="32" height="32"/>
	<g display="inline">
		<path fill="#CCCCCC" d="M22.136,28.461c0.062,0.029,0.153,0.062,0.263,0.096C22.288,28.523,22.197,28.49,22.136,28.461z"/>
		<path fill="#CCCCCC" d="M22.887,28.676c0.143,0.031,0.299,0.061,0.467,0.09C23.186,28.738,23.029,28.707,22.887,28.676z"/>
		<path fill="#CCCCCC" d="M22.479,28.578c0.097,0.027,0.205,0.055,0.328,0.082C22.683,28.633,22.576,28.605,22.479,28.578z"/>
	</g>
	<g display="inline">
		<path fill="#CCCCCC" d="M3.136,28.461c0.062,0.029,0.153,0.062,0.263,0.096C3.288,28.523,3.197,28.49,3.136,28.461z"/>
		<path fill="#CCCCCC" d="M3.887,28.676c0.143,0.031,0.299,0.061,0.467,0.09C4.186,28.738,4.029,28.707,3.887,28.676z"/>
		<path fill="#CCCCCC" d="M3.479,28.578c0.097,0.027,0.205,0.055,0.328,0.082C3.683,28.633,3.576,28.605,3.479,28.578z"/>
	</g>
</g>
<g id="main" display="none">
	<rect x="15" y="9" display="inline" fill="#6D6E71" width="3" height="8"/>
	<rect x="12" y="17" display="inline" fill="#6D6E71" width="9" height="2"/>
	<rect x="12" y="9" display="inline" fill="#6D6E71" width="9" height="2"/>
	<path display="inline" fill="#6D6E71" d="M12,9H4.999c-0.49,0-0.907,0.355-0.986,0.836l-0.998,7C3.004,16.891,3,16.948,3,17v2
		c0,0.553,0.448,1,1,1h8c0.553,0,1.001-0.447,1.001-1v-8.998C13.001,9.45,12.553,9,12,9z M8.001,19h-4l-0.002-2L5,10h3.001
		l0.002,8.998L8.001,19z"/>
	<rect x="14" y="13" display="inline" fill="#6D6E71" width="5" height="5"/>
	<path display="inline" fill="#6D6E71" d="M8,1v4h6V1H8z M11,4H9V2h2V4z"/>
	<path display="inline" fill="#6D6E71" d="M14,4H8C7.447,4,7,4.448,7,5v4c0,0.553,0.447,1,1,1h6c0.553,0,1-0.447,1-1V5
		C15,4.448,14.553,4,14,4z M11,9H8V5h3V9z"/>
	<path display="inline" fill="#6D6E71" d="M19,1v4h6V1H19z M22,4h-2V2h2V4z"/>
	<path display="inline" fill="#6D6E71" d="M25,4h-6c-0.553,0-1,0.447-1,1v4c0,0.553,0.447,1,1,1h6c0.553,0,1-0.447,1-1V5
		C26,4.448,25.553,4,25,4z M22,9h-3V5h3V9z"/>
	<path display="inline" fill="#6D6E71" d="M29.986,16.836l-0.998-7C28.909,9.356,28.492,9,28.002,9h-7.001
		C20.448,9,20,9.45,20,10.002V19c0,0.553,0.448,1,1.001,1h8c0.552,0,1-0.447,1-1v-2C30.001,16.948,29.997,16.891,29.986,16.836z
		 M25,19h-4V9.999L25,10V19z"/>
	<path display="inline" fill="#6D6E71" d="M30,19h-7.866l-1,9.002V29c0,0,1.866,1,4.866,1s5-1,5-1v-1L30,19z M24,28.863
		c-0.881-0.113-1.607-0.275-1.864-0.402v-0.393L23,20h1V28.863z"/>
	<path display="inline" fill="#6D6E71" d="M11,19H3.134l-1,9.002V29C2.134,29,4,30,7,30s5-1,5-1v-1L11,19z M5,28.863
		c-0.881-0.113-1.607-0.275-1.864-0.402v-0.393L4,20h1V28.863z"/>
</g>
<g id="foreground">
	<rect x="16" y="11" fill="#CCCCCC" width="1" height="6"/>
	<polygon fill="#CCCCCC" points="11.999,9.999 6,10 6.003,18.998 6.002,19 11.999,19 12.002,18.998 	"/>
	<rect x="15" y="14" fill="#CCCCCC" width="3" height="3"/>
	<rect x="10" y="2" fill="#CCCCCC" width="3" height="2"/>
	<rect x="9" y="5" fill="#CCCCCC" width="5" height="4"/>
	<rect x="21" y="2" fill="#CCCCCC" width="3" height="2"/>
	<rect x="20" y="5" fill="#CCCCCC" width="5" height="4"/>
	<polygon fill="#CCCCCC" points="28.001,10 23,10 23,19 29,19 29.002,17 	"/>
	<path fill="#CCCCCC" d="M29.134,20H24v8.863c-0.214-0.027-0.418-0.059-0.609-0.09C24.139,28.898,25.09,29,26,29
		c1.632,0,3.559-0.322,3.998-0.539v-0.395L29.134,20z"/>
	<path fill="#CCCCCC" d="M10.134,20H5v8.863c-0.214-0.027-0.418-0.059-0.609-0.09C5.139,28.898,6.09,29,7,29
		c1.632,0,3.559-0.322,3.998-0.539v-0.395L10.134,20z"/>
</g>
</svg>
