<?xml version="1.0" encoding="utf-8"?>
<!-- Generator: Adobe Illustrator 16.0.1, SVG Export Plug-In . SVG Version: 6.00 Build 0)  -->
<!DOCTYPE svg PUBLIC "-//W3C//DTD SVG 1.1//EN" "http://www.w3.org/Graphics/SVG/1.1/DTD/svg11.dtd">
<svg version="1.1" xmlns="http://www.w3.org/2000/svg" xmlns:xlink="http://www.w3.org/1999/xlink" x="0px" y="0px" width="32px"
	 height="32px" viewBox="0 0 32 32" enable-background="new 0 0 32 32" xml:space="preserve">
<g id="background" display="none">
	<g display="inline">
		<path fill="#A7A9AC" d="M19.304,12.494c0.822,0.808,1.773,1.757,2.738,2.729l0.784-0.912c0.188-0.168,0.701-0.592,1.098-0.612
			c0.475-0.026,0.85,0.146,1.725,0.109c0.323-0.015-0.218-0.702-1.025-1.563c0.352-0.657,0.26-1.49-0.295-2.045
			c-0.559-0.558-1.396-0.648-2.055-0.287c-0.707-0.67-1.239-1.157-1.239-1.157c0.001,0.108,0.132,1.174-0.013,1.685
			c-0.104,0.359-0.629,1.019-0.935,1.382"/>
		<path fill="#A7A9AC" d="M18.091,19.817c-0.678-0.858-1.712-2.111-3.035-3.68L4.539,25.158c-1.328,1.329-1.329,3.486,0.002,4.816
			c1.329,1.329,3.486,1.329,4.814,0 M8.136,28.292c-0.527,0.527-1.382,0.527-1.911,0.001c-0.529-0.53-0.527-1.385,0-1.914
			c0.529-0.526,1.385-0.528,1.911,0.001C8.664,26.906,8.664,27.763,8.136,28.292z"/>
	</g>
	<rect y="0.001" display="inline" fill="none" width="32" height="32"/>
</g>
<g id="main">
	<path fill="#6D6E71" d="M21.941,11.816c1.855,2.425,5.152,3.03,7.352,1.348c1.373-1.05,2.461-3.074,2.705-5.031
		c0.008-0.055-0.007-0.103-0.039-0.145c-0.015-0.021-0.035-0.039-0.062-0.052c-0.072-0.042-0.161-0.031-0.228,0.02l-4.211,3.221
		c-0.165,0.128-0.387,0.134-0.546,0.015l-1.974-1.447C24.9,9.717,24.873,9.69,24.85,9.659c-0.025-0.033-0.041-0.065-0.057-0.099
		L23.85,7.189c-0.074-0.186-0.012-0.402,0.152-0.53l4.213-3.221c0.066-0.051,0.1-0.138,0.076-0.214
		c-0.004-0.028-0.015-0.052-0.031-0.074c-0.033-0.039-0.077-0.068-0.13-0.075c-1.952-0.278-4.189,0.24-5.568,1.294
		C20.363,6.05,20.084,9.391,21.941,11.816L21.941,11.816z"/>
	<path fill="#6D6E71" d="M13.653,7.591c0,0-0.938-0.902-0.992-1.672c-0.056-0.771-0.369-1.881-0.369-1.881s1.498-1.473,3.716-1.988
		c2.07-0.48,4.336-0.559,4.336-0.559l-0.301-0.334c0,0-4.274-1.043-7.621-0.414C9.076,1.37,7.327,2.642,6.558,3.315
		C6.134,3.687,5.291,4.761,5.349,5.28c0.034,0.305,0.029,0.98-0.425,1.4S3.547,7.749,3.547,7.749S2.535,7.63,2.005,7.858
		c-0.53,0.232-1.748,1.289-1.748,1.289s-0.35,0.51-0.233,0.793c0.117,0.281,0.476,0.969,0.775,1.404
		c0.301,0.434,0.963,1.268,1.341,1.453c0.379,0.184,0.619,0.143,0.908,0.121s1.024-0.559,1.024-0.559s1.074-1.238,1.508-1.949
		c0.433-0.709,1.291-1.488,2.062-1.545c0.771-0.055,3.267,0.957,3.267,0.957S10.68,9.64,12.099,8.54
		C13.223,7.667,13.653,7.591,13.653,7.591z"/>
</g>
<g id="foreground" display="none">
	<path display="inline" fill="#D3B591" d="M31.684,27.079c-0.302-0.414-4.175-4.754-6.002-6.684
		c-1.883-1.988-5.051-5.197-7.105-7.215c-1.269-1.244-2.973-3.227-4.023-4.477c-0.211,0.086-0.646,0.312-1.396,0.893
		c-1.419,1.102-1.19,1.283-1.19,1.283s-0.053-0.021-0.138-0.055c2.174,2.516,6.966,8.102,7.892,9.498
		c1.201,1.814,5.566,7.08,6.154,7.857c0.695,0.924,1.692,2.281,2.49,2.549c0.664,0.221,1.172,0.227,2.231-0.789
		C32.515,28.099,31.985,27.493,31.684,27.079z"/>
</g>
</svg>
