<?xml version="1.0" encoding="utf-8"?>
<!-- Generator: Adobe Illustrator 16.0.1, SVG Export Plug-In . SVG Version: 6.00 Build 0)  -->
<!DOCTYPE svg PUBLIC "-//W3C//DTD SVG 1.1//EN" "http://www.w3.org/Graphics/SVG/1.1/DTD/svg11.dtd">
<svg version="1.1" xmlns="http://www.w3.org/2000/svg" xmlns:xlink="http://www.w3.org/1999/xlink" x="0px" y="0px" width="32px"
	 height="32px" viewBox="0 0 32 32" enable-background="new 0 0 32 32" xml:space="preserve">
<g id="background" display="none">
	<rect y="0" display="inline" fill-rule="evenodd" clip-rule="evenodd" fill="none" width="32" height="32"/>
	<circle display="inline" fill="#D2E9F9" cx="15.998" cy="16" r="12.5"/>
</g>
<g id="main">
	<g>
		<path fill="#9BC29D" d="M8.738,22.148C8.557,21.9,8.182,21.6,7.434,21.121l-0.267-0.17c-0.163-0.102-0.319-0.209-0.456-0.295
			c-0.092-0.064-0.343-0.232-0.423-0.336c-0.058-0.076-0.086-0.164-0.089-0.271c-0.004-0.098,0.011-0.201,0.029-0.332
			c0.033-0.275,0.055-0.559-0.064-0.936c-0.135-0.418-0.308-0.785-0.464-1.098l-0.056-0.115c-0.152-0.307-0.308-0.615-0.436-0.943
			c-0.071-0.191-0.157-0.348-0.241-0.482c-0.066-0.113-0.136-0.211-0.195-0.305l-0.052-0.076C4.568,15.536,4.441,15.317,4.422,15
			c-0.022-0.271-0.096-0.482-0.229-0.641c-0.056-0.068-0.118-0.117-0.184-0.168c-0.056-0.037-0.105-0.064-0.154-0.09
			c-0.053-0.031-0.122-0.039-0.188-0.049C3.565,14.688,3.5,15.34,3.5,16c0,3.351,1.323,6.39,3.472,8.634
			C7.028,24.613,7.089,24.6,7.158,24.6h0.229c0.121-0.006,0.217-0.045,0.244-0.057c0.062-0.021,0.119-0.064,0.161-0.113
			c0.056-0.061,0.106-0.137,0.155-0.246c0.061-0.129,0.071-0.24,0.078-0.322c0.004-0.066,0.002-0.127-0.004-0.266
			c0-0.189,0.046-0.338,0.257-0.49c0.105-0.076,0.21-0.137,0.333-0.203c0.098-0.059,0.199-0.166,0.23-0.277s0.042-0.246-0.012-0.346
			C8.808,22.244,8.776,22.197,8.738,22.148z M28.437,15.706c-0.049-0.1-0.192-0.217-0.293-0.262
			c-0.044-0.014-0.087-0.029-0.167-0.055c-0.144-0.047-0.195-0.102-0.209-0.219c-0.021-0.141,0.005-0.26,0.076-0.342
			c0.066-0.074,0.171-0.117,0.293-0.117c0.035,0,0.073,0.004,0.107,0.016c0.039,0.01,0.077,0.02,0.118,0.02
			c0.025,0,0.049-0.014,0.074-0.018c-0.404-3.967-2.666-7.373-5.894-9.363c-0.077,0.111-0.119,0.244-0.07,0.377
			c0.018,0.053,0.049,0.127,0.098,0.217l0.079,0.148l0.085,0.16c0.024,0.055,0.042,0.098,0.056,0.141
			c0.006,0.016,0.02,0.066,0.018,0.102c-0.008,0.064-0.06,0.098-0.153,0.098c-0.228,0-0.555-0.104-0.752-0.168l-0.087-0.027
			c-0.106-0.031-0.204-0.061-0.288-0.084c-0.196-0.051-0.254-0.051-0.286-0.051c-0.296,0-0.671,0.297-0.837,0.5
			c-0.02,0.027-0.057,0.084-0.117,0.195l-0.11,0.248c-0.041,0.088-0.081,0.182-0.121,0.266c-0.043,0.082-0.087,0.164-0.146,0.244
			c-0.049,0.068-0.076,0.115-0.096,0.148c-0.082,0.168,0.009,0.43,0.138,0.559c0.224,0.223,0.453,0.418,0.688,0.58
			c0.073,0.051,0.159,0.076,0.246,0.076c0.073,0,0.147-0.02,0.21-0.057c0.144-0.078,0.23-0.236,0.218-0.402l-0.009-0.119
			c-0.01-0.137-0.017-0.273-0.017-0.371c0-0.109,0.069-0.234,0.136-0.299c0.026-0.021,0.104-0.066,0.153-0.066
			c0.035,0,0.078,0.053,0.104,0.098c0.028,0.047,0.069,0.086,0.115,0.119c0.035,0.027,0.08,0.051,0.188,0.121
			c0.119,0.076,0.251,0.172,0.293,0.32c0.095,0.33,0.068,0.609-0.082,0.873C22.04,9.584,21.96,9.68,21.489,9.68
			c-0.22,0-0.372-0.057-0.506-0.119l-0.08-0.035c-0.056-0.023-0.113-0.035-0.171-0.035c-0.098,0-0.191,0.031-0.271,0.084
			c-0.077,0.055-0.16,0.123-0.232,0.191c-0.167,0.148-0.327,0.32-0.4,0.418c-0.1,0.121-0.424,0.412-0.763,0.551
			c-0.216,0.094-0.318,0.34-0.231,0.561l0.04,0.086c0.033,0.094,0.106,0.279,0.112,0.424c0.01,0.207-0.112,0.236-0.155,0.246
			c-0.075,0.018-0.15,0.027-0.23,0.027c-0.042,0-0.081-0.002-0.108-0.006c-0.106-0.01-0.204-0.033-0.307-0.061l-0.115-0.029
			c-0.035-0.008-0.069-0.012-0.104-0.012c-0.175,0-0.359,0.094-0.427,0.252c-0.037,0.09-0.065,0.195-0.086,0.328
			c-0.035,0.238-0.035,0.496-0.038,0.742c-0.01,0.211,0.132,0.416,0.336,0.463c0.068,0.016,0.138,0.039,0.204,0.057
			c0,0.002,0.08,0.023,0.08,0.023c0.08,0.023,0.157,0.047,0.236,0.059c0.017,0.002,0.074,0.004,0.088,0.004
			c0.201,0,0.342-0.102,0.432-0.184c0.103-0.09,0.164-0.174,0.203-0.244c0.037-0.061,0.062-0.117,0.108-0.225
			c0.011-0.029,0.023-0.053,0.04-0.086c0.016-0.031,0.033-0.062,0.051-0.086c0.045-0.062,0.104-0.107,0.178-0.15
			c0.164-0.08,0.25-0.188,0.335-0.309c0.034-0.043,0.062-0.088,0.098-0.133c0.049-0.055,0.098-0.102,0.146-0.139
			c0.122-0.08,0.307-0.174,0.509-0.174c0.111,0,0.217,0.027,0.323,0.09c0.071,0.045,0.176,0.121,0.298,0.219
			c0.073,0.055,0.174,0.084,0.275,0.084c0.072,0,0.146-0.014,0.206-0.045c0.153-0.072,0.275-0.23,0.275-0.396
			c0.044,0.014,0.104,0.041,0.128,0.064c0.116,0.064,0.249,0.172,0.378,0.283c0.129,0.115,0.262,0.254,0.372,0.377
			c0.114,0.143,0.174,0.25,0.186,0.328c0.013,0.111,0.066,0.258,0.15,0.381c0.077,0.125,0.229,0.17,0.373,0.17h0.018
			c0.15-0.002,0.302-0.113,0.375-0.244c0.038-0.062,0.103-0.111,0.13-0.111c0.008,0,0.051,0.02,0.118,0.09
			c0.049,0.061,0.085,0.123,0.109,0.189c0.065,0.16,0.224,0.271,0.4,0.271h0.019l0.146-0.002c0.073,0,0.149,0.002,0.226,0.01
			c0.363,0.049,0.445,0.225,0.468,0.285c0.131,0.289,0.157,0.482,0.157,0.592c0,0.32-0.211,0.383-0.279,0.404
			c-0.176,0.053-0.293,0.098-0.439,0.156c-0.104,0.039-0.195,0.072-0.4,0.094c-0.068,0-0.137-0.021-0.186-0.039
			c-0.083-0.025-0.167-0.061-0.262-0.105c-0.077-0.039-0.185-0.09-0.313-0.102c-0.019-0.008-0.04-0.008-0.06-0.008
			c-0.193,0-0.371,0.135-0.416,0.326c-0.011,0.039-0.019,0.076-0.03,0.111c-0.014,0.035-0.029,0.074-0.049,0.107
			c-0.031,0.053-0.078,0.08-0.164,0.08h-0.007c-0.324-0.043-1.282-0.41-1.531-0.703c-0.08-0.088-0.093-0.158-0.098-0.205
			c-0.004-0.029-0.004-0.064-0.004-0.1l0.021-0.141c0.031-0.221-0.189-0.453-0.408-0.498c-0.144-0.033-0.313-0.049-0.502-0.057
			l-0.14-0.004c-0.317,0-0.632,0.027-0.823,0.047c-0.227,0.02-0.395,0.111-0.551,0.197l-0.084,0.045
			c-0.034,0.02-0.069,0.031-0.102,0.045c-0.021,0.006-0.041,0.008-0.076,0.008c-0.025,0-0.058,0-0.104-0.004
			c-0.057-0.02-0.115-0.049-0.206-0.102l-0.119-0.07c-0.003,0-0.072-0.041-0.074-0.041c-0.113-0.062-0.173-0.096-0.229-0.109
			c-0.042-0.016-0.086-0.02-0.13-0.02c-0.111,0-0.22,0.043-0.302,0.123c-0.01,0.01-0.038,0.033-0.136,0.146l-0.115,0.129
			c-0.073,0.072-0.146,0.139-0.23,0.191c-0.35,0.24-0.531,0.402-0.666,0.752c-0.059,0.164-0.122,0.252-0.216,0.324
			c-0.042,0.033-0.091,0.055-0.175,0.092c-0.062,0.023-0.138,0.049-0.227,0.08c-0.394,0.125-0.931,0.736-1.17,1.207
			c-0.121,0.248-0.187,0.404-0.212,0.525c-0.028,0.125-0.034,0.221-0.034,0.389c0,0.285-0.111,0.689-0.356,0.9
			c-0.072,0.064-0.121,0.145-0.141,0.238c-0.016,0.07-0.019,0.15-0.013,0.256c0.021,0.186,0.084,0.379,0.175,0.508
			c0.035,0.055,0.084,0.115,0.171,0.193l0.131,0.123l0.093,0.088c0.138,0.135,0.293,0.303,0.357,0.518
			c0.122,0.41,0.329,0.746,0.584,0.953c0.361,0.303,0.714,0.461,1.037,0.461c0.102,0,0.254-0.021,0.439-0.047l0.088-0.014
			c0.176-0.025,0.375-0.057,0.577-0.078c0.22-0.029,0.471-0.055,0.717-0.055c0.228,0,0.413,0.023,0.549,0.068
			c0.199,0.064,0.391,0.104,0.565,0.139c0.092,0.018,0.181,0.035,0.262,0.061c0.27,0.072,0.404,0.182,0.456,0.379
			c0.07,0.246,0.046,0.393,0.015,0.506c-0.009,0.039-0.024,0.076-0.04,0.115c-0.024,0.061-0.049,0.125-0.068,0.197
			c-0.047,0.152-0.007,0.314,0.103,0.426l0.072,0.072c0.114,0.115,0.273,0.27,0.293,0.555c0.045,0.572-0.064,0.936-0.374,1.246
			c-0.335,0.338-0.456,0.541-0.54,0.912c-0.019,0.082-0.019,0.172-0.011,0.289c0.008,0.088,0.02,0.174,0.045,0.316
			c0.018,0.125,0.038,0.271,0.018,0.414c-0.006,0.053,0.007,0.111,0.021,0.16c2.321-0.693,4.356-2.041,5.901-3.83
			c0.018-0.082,0.042-0.184,0.08-0.312c0.049-0.18,0.149-0.521,0.266-0.777c0.116-0.254,0.436-0.719,0.629-1.002l0.199-0.289
			c0.214-0.305,0.427-0.613,0.584-0.865c0.233-0.377,0.391-0.697,0.471-0.951c0.042-0.145-0.037-0.295-0.135-0.408
			c-0.079-0.094-0.225-0.143-0.354-0.143c-0.031,0-0.06,0.002-0.086,0.012c-0.079,0-0.118-0.025-0.146-0.049
			c-0.03-0.025-0.061-0.066-0.092-0.135c-0.031-0.055-0.06-0.121-0.089-0.195c-0.058-0.16-0.117-0.354-0.173-0.553l-0.031-0.117
			c-0.049-0.16-0.096-0.316-0.141-0.453c-0.111-0.305-0.167-0.363-0.184-0.377c-0.108-0.127-0.271-0.488-0.396-0.882
			c-0.055-0.178-0.097-0.338-0.11-0.453c0-0.023-0.011-0.092,0.038-0.164c0.272,0.168,0.928,1.552,0.963,1.875
			c0.016,0.127,0.049,0.279,0.098,0.42c0.053,0.16,0.202,0.254,0.366,0.27c0.018,0.006,0.031,0.006,0.049,0.006
			c0.15,0,0.3-0.088,0.382-0.215c0.232-0.355,0.438-0.803,0.563-1.225c0.153-0.5,0.24-0.816,0.268-1.06
			C28.5,15.995,28.503,15.854,28.437,15.706z M12.059,4.946c-0.091-0.035-0.17-0.053-0.253-0.053c-0.106,0-0.19,0.029-0.271,0.066
			c-0.066,0.029-0.14,0.074-0.232,0.137l-0.085,0.059c-0.058,0.037-0.125,0.082-0.196,0.127c-0.104,0.059-0.194,0.107-0.274,0.143
			c-0.098,0.045-0.158,0.053-0.191,0.053c-0.043,0-0.154,0-0.144-0.311c0.035-0.107,0.007-0.217-0.042-0.314
			C8.267,5.913,6.513,7.551,5.301,9.561c0.051,0.041,0.106,0.086,0.175,0.098c0.031,0.01,0.065,0.014,0.098,0.014
			c0.129,0,0.256-0.062,0.34-0.168c0.136-0.174,0.335-0.295,0.488-0.393c0.087-0.051,0.178-0.109,0.251-0.16
			C6.75,8.889,6.83,8.819,6.914,8.731C7.127,8.481,7.465,8.19,7.866,8.19c0.342,0,0.672,0,1.039,0.043
			c0.013,0.002,0.077,0.004,0.094,0.004c0.426,0,0.565-0.385,0.613-0.504c0.138-0.369,0.229-0.461,0.439-0.461
			c0.03,0,0.064,0.004,0.099,0.008c0.082,0.008,0.167,0.031,0.304,0.074c0.08,0.023,0.16,0.049,0.254,0.072
			c0.056,0.01,0.095,0.012,0.121,0.02c0.016,0.002,0.029,0.002,0.04,0.002c0.129,0,0.262-0.057,0.342-0.156
			c0.258-0.307,0.652-0.861,0.892-1.219c0.134-0.197,0.221-0.439,0.231-0.643C12.341,5.245,12.23,5.012,12.059,4.946z M18.104,8.823
			c-0.026,0.055-0.056,0.115-0.08,0.176c-0.051,0.121-0.006,0.262,0.054,0.379c0.064,0.113,0.213,0.201,0.342,0.227
			c0.016,0.004,0.031,0.006,0.046,0.016c0.027,0.008,0.052,0.016,0.078,0.023c-0.011,0.033-0.018,0.074-0.02,0.113l-0.004,0.049
			c-0.025,0.156,0.049,0.352,0.174,0.443c0.091,0.066,0.2,0.113,0.312,0.113c0.046,0,0.093-0.008,0.136-0.029
			c0.164-0.07,0.29-0.359,0.279-0.535c-0.007-0.213-0.185-0.398-0.391-0.432c0.034-0.086,0.035-0.184,0.006-0.279
			c-0.048-0.148-0.142-0.289-0.263-0.395c-0.075-0.068-0.177-0.107-0.28-0.107c-0.027,0-0.056,0.01-0.084,0.012
			C18.276,8.622,18.165,8.706,18.104,8.823z M13.848,3.7c-0.464,0.078-0.921,0.182-1.367,0.312c0.049,0.189,0.216,0.324,0.415,0.324
			h0.019c0.138-0.006,0.267-0.012,0.386-0.031c0.073-0.014,0.126-0.025,0.159-0.033c0.054-0.016,0.108-0.043,0.151-0.082l0.091-0.07
			C13.83,4.016,13.882,3.852,13.848,3.7z M14.112,6.772c0.077,0,0.15-0.02,0.217-0.057c0.324-0.191,0.843-0.441,1.22-0.52
			c0.073-0.014,0.148-0.016,0.221-0.016l0.167,0.004c0.084,0.002,0.171,0.008,0.262,0.018l0.182,0.012
			c0.069,0.002,0.125,0.004,0.182,0.004c0.094,0,0.173-0.004,0.233-0.014c0.11-0.016,0.251-0.082,0.318-0.166
			c0.053-0.062,0.098-0.125,0.142-0.188c0.049-0.072,0.091-0.145,0.149-0.236c0.104-0.158,0.203-0.311,0.348-0.453
			c0.081-0.08,0.166-0.146,0.229-0.193l0.109-0.082c0.102-0.074,0.161-0.188,0.17-0.312c0.007-0.125-0.036-0.248-0.124-0.336
			c-0.089-0.086-0.204-0.154-0.382-0.205c-0.24-0.082-0.548-0.121-0.997-0.164c-0.108-0.01-0.206-0.016-0.29-0.016
			c-0.22,0-0.409,0.031-0.564,0.088c-0.077,0.027-0.156,0.072-0.182,0.094l-0.062,0.047c-0.095,0.049-0.168,0.088-0.241,0.148
			c-0.056,0.051-0.087,0.098-0.112,0.137c-0.007,0.01-0.096,0.166-0.101,0.178c-0.025,0.045-0.073,0.119-0.153,0.195
			c-0.073,0.074-0.144,0.135-0.214,0.186c-0.058,0.047-0.117,0.088-0.208,0.154c-0.157,0.109-0.293,0.209-0.448,0.369
			c-0.327,0.324-0.487,0.598-0.5,0.875c-0.008,0.156,0.073,0.305,0.208,0.391C13.958,6.75,14.035,6.772,14.112,6.772z"/>
	</g>
</g>
<g id="foreground" display="none">
	<path display="inline" fill="#6D6E71" d="M15.998,1C7.713,1,1,7.715,1,16c0,8.287,6.713,15,14.998,15S31,24.287,31,16
		C31,7.715,24.283,1,15.998,1z M15.998,30.301c-7.885,0-14.299-6.414-14.299-14.3c0-7.885,6.414-14.299,14.299-14.299
		c7.887,0,14.301,6.414,14.301,14.299C30.299,23.887,23.885,30.301,15.998,30.301z"/>
</g>
</svg>
