<?xml version="1.0" encoding="utf-8"?>
<!-- Generator: Adobe Illustrator 16.0.1, SVG Export Plug-In . SVG Version: 6.00 Build 0)  -->
<!DOCTYPE svg PUBLIC "-//W3C//DTD SVG 1.1//EN" "http://www.w3.org/Graphics/SVG/1.1/DTD/svg11.dtd">
<svg version="1.1" xmlns="http://www.w3.org/2000/svg" xmlns:xlink="http://www.w3.org/1999/xlink" x="0px" y="0px" width="32px"
	 height="32px" viewBox="0 0 32 32" enable-background="new 0 0 32 32" xml:space="preserve">
<g id="background" display="none">
	<rect y="0.001" display="inline" fill="none" width="32" height="32"/>
	<rect y="7.001" display="inline" fill="#C96B4B" width="32" height="20"/>
</g>
<g id="main">
	<path fill="#6D6E71" d="M22,7V4c0-0.553-0.447-1-1-1H11c-0.553,0-1,0.447-1,1v3l2,0v-2h8v2L22,7z"/>
	<g>
		<g>
			<path fill="#6D6E71" d="M13.75,12.251V11c0-0.689,0.561-1.25,1.25-1.25h2c0.689,0,1.25,0.561,1.25,1.25v1.25H13.75z"/>
			<path fill="#6D6E71" d="M17,10.001c0.553,0,1,0.447,1,1v1h-4v-1c0-0.553,0.447-1,1-1H17 M17,9.501h-2c-0.827,0-1.5,0.673-1.5,1.5
				v1v0.5H14h4h0.5v-0.5v-1C18.5,10.174,17.827,9.501,17,9.501L17,9.501z"/>
		</g>
		<g>
			<path fill="#6D6E71" d="M15,16.251c-0.689,0-1.25-0.561-1.25-1.25v-2.25h4.5V15c0,0.689-0.561,1.25-1.25,1.25H15z"/>
			<path fill="#6D6E71" d="M18,13.001v2c0,0.553-0.447,1-1,1h-2c-0.553,0-1-0.448-1-1v-2H18 M18.5,12.501H18h-4h-0.5v0.5v2
				c0,0.827,0.673,1.5,1.5,1.5h2c0.827,0,1.5-0.673,1.5-1.5v-2V12.501L18.5,12.501z"/>
		</g>
	</g>
	<g>
		<g>
			<path fill="#6D6E71" d="M13.75,12.251V11c0-0.689,0.561-1.25,1.25-1.25h2c0.689,0,1.25,0.561,1.25,1.25v1.25H13.75z"/>
			<path fill="#6D6E71" d="M17,10.001c0.553,0,1,0.447,1,1v1h-4v-1c0-0.553,0.447-1,1-1H17 M17,9.501h-2c-0.827,0-1.5,0.673-1.5,1.5
				v1v0.5H14h4h0.5v-0.5v-1C18.5,10.174,17.827,9.501,17,9.501L17,9.501z"/>
		</g>
		<g>
			<path fill="#6D6E71" d="M15,16.251c-0.689,0-1.25-0.561-1.25-1.25v-2.25h4.5V15c0,0.689-0.561,1.25-1.25,1.25H15z"/>
			<path fill="#6D6E71" d="M18,13.001v2c0,0.553-0.447,1-1,1h-2c-0.553,0-1-0.448-1-1v-2H18 M18.5,12.501H18h-4h-0.5v0.5v2
				c0,0.827,0.673,1.5,1.5,1.5h2c0.827,0,1.5-0.673,1.5-1.5v-2V12.501L18.5,12.501z"/>
		</g>
	</g>
</g>
<g id="foreground" display="none">
	<path display="inline" fill="#F8F8F8" d="M19,13.001v-3c0-0.553-0.447-1-1-1h-4c-0.553,0-1,0.447-1,1v3H1v1h12v2
		c0,0.553,0.447,1,1,1h4c0.553,0,1-0.447,1-1v-2h12v-1H19z M18,15c0,0.553-0.447,1-1,1h-2c-0.553,0-1-0.448-1-1v-2h4V15z M18,12.001
		h-4v-1c0-0.553,0.447-1,1-1h2c0.553,0,1,0.447,1,1V12.001z"/>
</g>
</svg>
